#!OML:ASF E:\id_vita\Project 1\Capture day 1\Session 1\Male1.ASF
:FULLY-SPECIFIED
:DEGREES
970
root 6.57962 16.3393 -0.101244 579.196 84.4177 576.057
lowerback -4.22238 -2.94722 0.0629738
upperback 0.95795 -3.98187 1.65061
thorax 3.46489 -1.99437 1.37673
lowerneck -4.52678 5.86223 11.0941
upperneck 2.74967 7.16414 1.08846
head 2.04476 3.75487 -1.29852
rclavicle -3.29517e-014 8.24956e-015
rhumerus -33.5952 -22.8488 -75.9498
rradius 15.7578
rwrist 17.1846
rhand -19.6138 35.7603
rfingers 7.12502
rthumb 6.71268 5.88666
lclavicle -3.29517e-014 8.24956e-015
lhumerus -20.7647 43.855 77.9598
lradius 4.32593
lwrist -32.1198
lhand -13.5996 50.2632
lfingers 7.12502
lthumb 12.5152 79.8684
rfemur -16.8736 -0.199657 26.2011
rtibia 23.3598
rfoot -8.16777 -7.03254
rtoes -3.13493
lfemur 0.78271 0.95985 -14.9483
ltibia 50.6448
lfoot 2.12293 -5.71627
ltoes 18.9253
971
root 6.69482 16.3609 -0.0813735 580.726 84.2128 577.668
lowerback -3.74828 -2.82981 0.284538
upperback 0.699474 -3.82681 1.72674
thorax 2.91786 -1.91293 1.3758
lowerneck -4.30379 5.68879 11.0278
upperneck 2.70243 6.97052 0.943432
head 1.9825 3.65033 -1.34998
rclavicle -3.4514e-014 -3.32964e-015
rhumerus -33.4975 -21.3427 -76.483
rradius 16.1976
rwrist 16.0285
rhand -19.6913 35.9894
rfingers 7.12502
rthumb 6.6378 6.11343
lclavicle -3.4514e-014 -3.32964e-015
lhumerus -22.2933 44.1675 76.7098
lradius 3.70312
lwrist -32.088
lhand -13.8272 50.6136
lfingers 7.12502
lthumb 12.2958 80.2321
rfemur -15.7907 -0.464125 26.5906
rtibia 22.2943
rfoot -8.19727 -6.74981
rtoes -1.83916
lfemur -0.46331 1.45708 -14.6101
ltibia 52.6619
lfoot 1.74828 -4.86706
ltoes 18.7601
972
root 6.80288 16.3803 -0.0628051 582.963 84.0777 579.947
lowerback -4.32412 -2.63709 0.593855
upperback 1.18247 -3.60193 1.67766
thorax 3.71316 -1.79312 1.12608
lowerneck -4.40829 5.57248 11.1501
upperneck 2.02012 6.82868 0.758981
head 1.78133 3.55161 -1.44332
rclavicle -5.15598e-015 8.84592e-015
rhumerus -32.2145 -20.3836 -77.571
rradius 16.6219
rwrist 14.848
rhand -19.8148 36.1851
rfingers 7.12502
rthumb 6.5186 6.30547
lclavicle -5.15598e-015 8.84592e-015
lhumerus -22.0927 44.5482 76.4266
lradius 2.89966
lwrist -31.9228
lhand -14.0173 51.2992
lfingers 7.12502
lthumb 12.1124 80.9286
rfemur -14.7852 -0.675811 26.9942
rtibia 21.2007
rfoot -8.04337 -6.46652
rtoes -0.903315
lfemur -1.76256 2.08013 -14.2617
ltibia 54.5353
lfoot 1.00314 -4.39252
ltoes 17.938
973
root 6.9118 16.3929 -0.0390923 584.585 83.7105 581.835
lowerback -3.82201 -2.54451 0.919092
upperback 1.1332 -3.48553 1.74798
thorax 3.36203 -1.72952 1.05125
lowerneck -4.41735 5.41942 11.0718
upperneck 1.90362 6.63351 0.722905
head 1.73212 3.44812 -1.45109
rclavicle 3.12775e-014 -4.37326e-015
rhumerus -31.9331 -19.0273 -78.2553
rradius 17.2356
rwrist 13.7385
rhand -20.1467 35.6629
rfingers 7.12502
rthumb 6.19818 5.77356
lclavicle 3.12775e-014 -4.37326e-015
lhumerus -23.453 44.8237 75.2188
lradius 2.5785
lwrist -31.7205
lhand -15.0672 51.3413
lfingers 7.12502
lthumb 11.1 81.0278
rfemur -13.607 -0.879282 27.5587
rtibia 20.2455
rfoot -7.924 -6.52101
rtoes -1.53795
lfemur -2.83154 2.5717 -13.7225
ltibia 56.2148
lfoot 0.478545 -3.65992
ltoes 16.8052
974
root 7.02459 16.4072 -0.0130796 585.715 83.6187 583.241
lowerback -3.43087 -2.34724 0.991514
upperback 1.17936 -3.2178 1.75374
thorax 3.18184 -1.59543 1.05084
lowerneck -4.53414 5.23688 10.8178
upperneck 1.8224 6.39114 0.880982
head 1.69539 3.32595 -1.36401
rclavicle 7.2867e-015 -1.64991e-014
rhumerus -31.5063 -17.8497 -78.8233
rradius 17.6956
rwrist 12.8274
rhand -20.2738 35.4602
rfingers 7.12502
rthumb 6.07549 5.56733
lclavicle 7.2867e-015 -1.64991e-014
lhumerus -24.6876 44.9481 74.1599
lradius 2.516
lwrist -31.6363
lhand -15.7178 51.2061
lfingers 7.12502
lthumb 10.4724 80.9252
rfemur -12.558 -1.00953 27.9204
rtibia 19.4471
rfoot -7.90887 -6.57186
rtoes -3.62916
lfemur -3.77776 3.12007 -13.4551
ltibia 57.6672
lfoot 0.901443 -2.2837
ltoes 19.3224
975
root 7.13549 16.4254 0.00958433 586.483 83.8162 584.094
lowerback -3.69545 -2.09357 0.874862
upperback 1.46868 -2.88276 1.64225
thorax 3.6254 -1.42863 1.00563
lowerneck -4.69399 5.12531 10.5367
upperneck 1.53973 6.24875 1.19294
head 1.59839 3.25071 -1.21974
rclavicle 1.38155e-014 1.89839e-014
rhumerus -30.6315 -16.7451 -79.5377
rradius 18.0138
rwrist 11.9455
rhand -20.2402 35.996
rfingers 7.12502
rthumb 6.10796 6.10407
lclavicle 1.38155e-014 1.89839e-014
lhumerus -25.4625 45.0994 73.3335
lradius 2.62364
lwrist -31.645
lhand -15.4775 51.3666
lfingers 7.12502
lthumb 10.7042 81.0739
rfemur -11.7225 -1.03532 27.9641
rtibia 18.7595
rfoot -8.28123 -6.33355
rtoes -2.69962
lfemur -4.85181 3.62584 -13.514
ltibia 58.9331
lfoot 0.289291 -2.47129
ltoes 20.086
976
root 7.24492 16.4313 0.0323541 585.162 83.8908 582.874
lowerback -3.57054 -1.97521 0.731047
upperback 1.47207 -2.71179 1.48073
thorax 3.55464 -1.34609 0.935832
lowerneck -4.68684 5.02832 10.4405
upperneck 1.43834 6.1302 1.37241
head 1.54672 3.19167 -1.15128
rclavicle -1.78906e-014 7.15625e-015
rhumerus -30.2749 -15.7926 -80.0629
rradius 18.3093
rwrist 11.4078
rhand -20.3966 36.3409
rfingers 7.12502
rthumb 5.95697 6.44469
lclavicle -1.78906e-014 7.15625e-015
lhumerus -26.9753 45.202 71.8845
lradius 2.90707
lwrist -31.6937
lhand -15.1192 51.3567
lfingers 7.12502
lthumb 11.0498 81.0458
rfemur -10.7674 -1.10842 27.8636
rtibia 18.2018
rfoot -9.12249 -6.18072
rtoes 0.399438
lfemur -5.94556 3.97086 -13.6546
ltibia 60.044
lfoot -0.166089 -2.60325
ltoes 21.5077
